<svg xmlns="http://www.w3.org/2000/svg" width="25" height="24" viewBox="0 0 25 24" fill="none">
								<path d="M8.13371 10.085L12.7945 5.42436L17.4577 10.0874L20.1697 7.37544L12.7945 0L5.42183 7.37304L8.13371 10.085ZM0.794708 11.9996L3.50679 9.28754L6.21869 11.9995L3.50663 14.7115L0.794708 11.9996ZM8.13371 13.915L12.7945 18.5756L17.4576 13.9127L20.171 16.6232L20.1697 16.6247L12.7945 24L5.42159 16.6272L5.41775 16.6234L8.13371 13.915ZM19.3708 12.0011L22.0829 9.28904L24.7948 12.0009L22.0827 14.713L19.3708 12.0011Z" fill="#F3BA2F"></path>
								<path d="M15.5452 11.9985H15.5464L12.7945 9.24658L10.7607 11.2803H10.7606L10.5269 11.5141L10.045 11.9961L10.0412 11.9998L10.045 12.0038L12.7945 14.7534L15.5464 12.0014L15.5477 11.9998L15.5452 11.9985Z" fill="#F3BA2F"></path>
							</svg>