<svg xmlns="http://www.w3.org/2000/svg" width="28" height="24" viewBox="0 0 28 24" fill="none">
								<g clip-path="url(#clip0_197_98)">
									<path fill-rule="evenodd" clip-rule="evenodd" d="M5.25698 0.117874L0.226462 10.6845C0.207319 10.7238 0.201253 10.7682 0.20915 10.8112C0.217048 10.8542 0.238494 10.8935 0.270354 10.9234L13.8566 23.9423C13.8952 23.9793 13.9466 24 14 24C14.0535 24 14.1049 23.9793 14.1435 23.9423L27.7297 10.9243C27.7616 10.8943 27.783 10.855 27.7909 10.812C27.7988 10.769 27.7927 10.7246 27.7736 10.6853L22.7431 0.118687C22.7268 0.0831997 22.7007 0.0531376 22.6679 0.0320934C22.635 0.0110491 22.5968 -8.70516e-05 22.5578 1.57299e-05H5.44392C5.40471 -0.000472092 5.3662 0.0103958 5.33303 0.0313085C5.29986 0.0522212 5.27344 0.0822853 5.25698 0.117874Z" fill="#50AF95"></path>
									<path fill-rule="evenodd" clip-rule="evenodd" d="M15.7455 11.7695C15.648 11.7768 15.1441 11.8069 14.0199 11.8069C13.1258 11.8069 12.491 11.7801 12.2683 11.7695C8.81303 11.6175 6.23397 11.016 6.23397 10.2959C6.23397 9.57572 8.81303 8.97505 12.2683 8.82061V11.1705C12.4943 11.1867 13.1413 11.2249 14.0354 11.2249C15.1083 11.2249 15.6456 11.1802 15.7423 11.1713V8.82224C19.1902 8.97586 21.7636 9.57735 21.7636 10.2959C21.7636 11.0144 19.1911 11.6159 15.7423 11.7687L15.7455 11.7695ZM15.7455 8.57921V6.47645H20.5574V3.2699H7.45644V6.47645H12.2675V8.57839C8.35704 8.75803 5.41628 9.53264 5.41628 10.4609C5.41628 11.3891 8.35704 12.1629 12.2675 12.3434V19.0816H15.7447V12.3409C19.6462 12.1613 22.5821 11.3875 22.5821 10.4601C22.5821 9.53264 19.6487 8.75884 15.7447 8.57839L15.7455 8.57921Z" fill="white"></path>
								</g>
								<defs>
									<clipPath id="clip0_197_98">
										<rect width="27.5894" height="24" fill="white" transform="translate(0.205322)"></rect>
									</clipPath>
								</defs>
							</svg>